D:\PredSim\limbproperties\Ratio75\Ratio75_IK_walking_1.5.mot
version=1
nRows=4
nColumns=124
inDegrees=yes
endheader
                time	         pelvis_tilt	         pelvis_list	     pelvis_rotation	           pelvis_tx	           pelvis_ty	           pelvis_tz	       hip_flexion_r	     hip_adduction_r	      hip_rotation_r	        knee_angle_r	       ankle_angle_r	    subtalar_angle_r	         mtp_angle_r	       hip_flexion_l	     hip_adduction_l	      hip_rotation_l	        knee_angle_l	       ankle_angle_l	    subtalar_angle_l	         mtp_angle_l	    lumbar_extension	      lumbar_bending	     lumbar_rotation	          arm_flex_r	           arm_add_r	           arm_rot_r	        elbow_flex_r	          arm_flex_l	           arm_add_l	           arm_rot_l	        elbow_flex_l	glut_med1_r/activation	glut_med2_r/activation	glut_med3_r/activation	glut_min1_r/activation	glut_min2_r/activation	glut_min3_r/activation	semimem_r/activation	semiten_r/activation	bifemlh_r/activation	bifemsh_r/activation	    sar_r/activation	add_long_r/activation	add_brev_r/activation	add_mag1_r/activation	add_mag2_r/activation	add_mag3_r/activation	    tfl_r/activation	   pect_r/activation	   grac_r/activation	glut_max1_r/activation	glut_max2_r/activation	glut_max3_r/activation	iliacus_r/activation	  psoas_r/activation	quad_fem_r/activation	    gem_r/activation	   peri_r/activation	rect_fem_r/activation	vas_med_r/activation	vas_int_r/activation	vas_lat_r/activation	med_gas_r/activation	lat_gas_r/activation	 soleus_r/activation	tib_post_r/activation	flex_dig_r/activation	flex_hal_r/activation	tib_ant_r/activation	per_brev_r/activation	per_long_r/activation	per_tert_r/activation	ext_dig_r/activation	ext_hal_r/activation	glut_med1_l/activation	glut_med2_l/activation	glut_med3_l/activation	glut_min1_l/activation	glut_min2_l/activation	glut_min3_l/activation	semimem_l/activation	semiten_l/activation	bifemlh_l/activation	bifemsh_l/activation	    sar_l/activation	add_long_l/activation	add_brev_l/activation	add_mag1_l/activation	add_mag2_l/activation	add_mag3_l/activation	    tfl_l/activation	   pect_l/activation	   grac_l/activation	glut_max1_l/activation	glut_max2_l/activation	glut_max3_l/activation	iliacus_l/activation	  psoas_l/activation	quad_fem_l/activation	    gem_l/activation	   peri_l/activation	rect_fem_l/activation	vas_med_l/activation	vas_int_l/activation	vas_lat_l/activation	med_gas_l/activation	lat_gas_l/activation	 soleus_l/activation	tib_post_l/activation	flex_dig_l/activation	flex_hal_l/activation	tib_ant_l/activation	per_brev_l/activation	per_long_l/activation	per_tert_l/activation	ext_dig_l/activation	ext_hal_l/activation	 ercspn_r/activation	 ercspn_l/activation	 intobl_r/activation	 intobl_l/activation	 extobl_r/activation	 extobl_l/activation	
          0.00000000	         -8.36959129	         -1.33270515	          3.40198290	          0.00000000	          0.88740267	         -0.00389554	         33.84410514	          2.17127610	         -2.96663271	         -7.77779099	          8.06174181	         -2.51173001	          0.17201983	        -11.57426647	          0.32340035	          7.77029979	        -12.07845107	          5.60493679	         14.22434294	         17.47475609	          2.55616727	          0.49972797	         -3.79870581	         -5.61817725	        -13.81056311	         10.13756556	         23.96432254	          1.94065245	        -13.53738756	         17.22957538	         31.45775182	          0.06779398	          0.05000005	          0.05822111	          0.05000002	          0.05000003	          0.05000007	          0.25509983	          0.12129772	          0.28250966	          0.05000005	          0.05000005	          0.09619445	          0.15418455	          0.18637403	          0.17212270	          0.16432028	          0.05000020	          0.05000005	          0.13377293	          0.10922700	          0.14542787	          0.12821844	          0.05000000	          0.05000001	          0.15209315	          0.05000003	          0.05000001	          0.05000002	          0.05993355	          0.05000022	          0.05000018	          0.05770076	          0.05000005	          0.05658352	          0.05976641	          0.05000034	          0.05000054	          0.43557683	          0.16841762	          0.17726485	          0.12934755	          0.53399181	          0.27797153	          0.15417894	          0.11596505	          0.08929115	          0.21016640	          0.18001420	          0.13415628	          0.05000009	          0.05000001	          0.05000001	          0.08417415	          0.07809843	          0.10569418	          0.05000003	          0.05000006	          0.05000014	          0.05000007	          0.55303135	          0.05000012	          0.05000006	          0.05000081	          0.05000026	          0.05000013	          0.20178774	          0.86227947	          0.05058879	          0.05880056	          0.07894099	          0.28235320	          0.05003487	          0.05095204	          0.05342061	          0.37189438	          0.43945988	          0.31692717	          0.34903891	          0.31799147	          0.38810957	          0.05000000	          0.20185726	          0.22929846	          0.05000000	          0.05000000	          0.05000000	          0.08129237	          0.05000000	          0.07378498	          0.05000000	          0.07894095	          0.05000000	
          0.00986539	         -8.36095210	         -1.43205384	          3.58313292	          0.01763638	          0.88677210	         -0.00360175	         33.30303934	          2.49335330	         -2.77593003	         -7.59079918	          7.50032699	         -2.47260492	          0.20506247	        -11.42315706	          0.09438337	          7.62800321	        -14.24053588	          4.00569687	         15.02204121	         19.02887960	          2.76452684	          0.73483142	         -3.84714620	         -6.10641019	        -13.84190573	          9.84139004	         23.64574375	          1.49742081	        -13.57302630	         17.42628762	         31.96460587	          0.05822114	          0.05822114	          0.05000001	          0.05822115	          0.05822115	          0.05822108	          0.23298939	          0.10416982	          0.25583675	          0.05663254	          0.05000023	          0.09192085	          0.22012796	          0.16005707	          0.20024078	          0.18968122	          0.05000001	          0.06781223	          0.11488395	          0.18394747	          0.19893069	          0.19644080	          0.06303841	          0.05000003	          0.24685524	          0.12463704	          0.09206916	          0.05000004	          0.05147171	          0.10908122	          0.08388346	          0.05493949	          0.05000005	          0.05295200	          0.05132712	          0.05000011	          0.05000010	          0.49497570	          0.26509620	          0.20379589	          0.20318681	          0.58097155	          0.31926506	          0.13240800	          0.09959013	          0.07668274	          0.18048972	          0.15459519	          0.11521266	          0.05000005	          0.05000001	          0.05000000	          0.07228829	          0.06707051	          0.16400458	          0.16558610	          0.05000012	          0.05000016	          0.05000003	          0.56033721	          0.05822121	          0.05000720	          0.05000014	          0.05000010	          0.05000006	          0.17329418	          0.81512930	          0.07894103	          0.05049882	          0.06779408	          0.24248334	          0.08813690	          0.07794288	          0.06763457	          0.31938080	          0.37740567	          0.27217527	          0.29975267	          0.27308933	          0.33330634	          0.05000000	          0.17335390	          0.20937358	          0.05000000	          0.05000000	          0.05000000	          0.06981344	          0.06056063	          0.06336613	          0.05000000	          0.06779405	          0.05000000	
          0.01973077	         -8.34735330	         -1.53893452	          3.74166129	          0.03537736	          0.88608341	         -0.00330205	         32.77225232	          2.79376382	         -2.54657896	         -8.13582570	          6.43523929	         -2.40531197	          0.24194866	        -11.10981658	         -0.12138291	          7.49435706	        -16.66980071	          2.21058936	         15.76718587	         20.52594296	          2.97567354	          0.98340311	         -3.87566995	         -6.57227558	        -13.88257800	          9.60135322	         23.29679158	          1.02898868	        -13.60907664	         17.60293012	         32.45658147	          0.05000000	          0.05000000	          0.16790110	          0.05000000	          0.05000000	          0.05000000	          0.20008997	          0.08946047	          0.21971116	          0.05000000	          0.05000001	          0.07894112	          0.31940558	          0.34531582	          0.28885722	          0.21159130	          0.05000002	          0.05823685	          0.14290558	          0.20562578	          0.22178001	          0.21968914	          0.05413706	          0.05822114	          0.43362693	          0.10703760	          0.07906848	          0.05411756	          0.09113354	          0.11282589	          0.08503244	          0.05822114	          0.05822115	          0.05822114	          0.05000001	          0.05000008	          0.05822108	          0.49968556	          0.24831451	          0.18893439	          0.33189607	          0.65307782	          0.27418306	          0.11371125	          0.08552745	          0.06585471	          0.15500356	          0.13276548	          0.09894399	          0.05000009	          0.05000004	          0.05822105	          0.06208078	          0.05759979	          0.22780622	          0.26468426	          0.30417049	          0.10861755	          0.10703452	          0.55564488	          0.05000008	          0.05000005	          0.05822124	          0.05822124	          0.07752785	          0.14882407	          0.75420577	          0.06779413	          0.05822121	          0.05822118	          0.20824333	          0.07570535	          0.07534195	          0.06969527	          0.27428244	          0.32411387	          0.23374259	          0.25742591	          0.23452760	          0.28624162	          0.05000000	          0.14887536	          0.17980890	          0.05000000	          0.05000000	          0.05000000	          0.05995539	          0.08000972	          0.05441848	          0.05822114	          0.05822115	          0.05000001	
          0.02959616	         -8.33043414	         -1.68185065	          3.87139252	          0.05305883	          0.88540110	         -0.00301615	         32.25278965	          3.05208098	         -2.25960677	         -9.14115248	          4.98476337	         -2.28627896	          0.23212026	        -10.59363237	         -0.34181648	          7.37853222	        -19.42025476	          0.27360503	         16.43525808	         21.74996279	          3.17743844	          1.27717297	         -3.88110331	         -6.97862562	        -13.93850566	          9.43528993	         22.88678560	          0.56758007	        -13.62755353	         17.75552250	         32.90165441	          0.30213827	          0.41345787	          0.49803781	          0.31724212	          0.38481665	          0.39503550	          0.17183614	          0.10352492	          0.18868671	          0.05822138	          0.05000007	          0.06779419	          0.27430372	          0.29655529	          0.24806897	          0.23590632	          0.05000001	          0.05001351	          0.12272652	          0.36462742	          0.31579139	          0.28360923	          0.05000000	          0.05000000	          0.46668329	          0.09192331	          0.21547286	          0.05000000	          0.07826498	          0.09689426	          0.07302539	          0.05000000	          0.05000000	          0.05000000	          0.05000002	          0.05000005	          0.05000002	          0.69818620	          0.21325110	          0.16225580	          0.59696748	          0.79071981	          0.56215220	          0.10057521	          0.07345049	          0.05655566	          0.14153243	          0.11401825	          0.08497254	          0.05001120	          0.05000002	          0.05000000	          0.05331462	          0.05000019	          0.25669390	          0.25289303	          0.26121991	          0.09328017	          0.09192065	          0.61551341	          0.08500651	          0.05000006	          0.05000010	          0.05000009	          0.06658049	          0.13089882	          0.70722208	          0.05822122	          0.05000005	          0.05000002	          0.17883820	          0.06501533	          0.06470325	          0.05985391	          0.23555221	          0.27834717	          0.20073682	          0.22107593	          0.20141100	          0.24582270	          0.05000006	          0.12785334	          0.15441888	          0.05822164	          0.16021898	          0.05822111	          0.05520996	          0.12544961	          0.07894095	          0.05000000	          0.05000000	          0.05000000	
